<svg width="10" height="18" viewBox="0 0 10 18" fill="none" xmlns="http://www.w3.org/2000/svg" xmlns:xlink="http://www.w3.org/1999/xlink">
<path d="M9.878,7.808C9.878,7.749 9.863,7.686 9.834,7.617C9.805,7.549 9.761,7.485 9.702,7.427L1.909,-0.366C1.851,-0.425 1.787,-0.469 1.719,-0.498C1.65,-0.527 1.587,-0.542 1.528,-0.542C1.45,-0.542 1.377,-0.527 1.309,-0.498C1.24,-0.469 1.187,-0.425 1.147,-0.366L0.298,0.454C0.259,0.513 0.22,0.576 0.181,0.645C0.142,0.713 0.122,0.786 0.122,0.864C0.122,0.923 0.142,0.986 0.181,1.055C0.22,1.123 0.259,1.187 0.298,1.245L6.89,7.808L0.298,14.399C0.259,14.438 0.22,14.497 0.181,14.575C0.142,14.653 0.122,14.722 0.122,14.78C0.122,14.839 0.142,14.907 0.181,14.985C0.22,15.063 0.259,15.122 0.298,15.161L1.147,16.011C1.187,16.05 1.24,16.084 1.309,16.113C1.377,16.143 1.45,16.157 1.528,16.157C1.587,16.157 1.65,16.143 1.719,16.113C1.787,16.084 1.851,16.05 1.909,16.011L9.702,8.188C9.761,8.149 9.805,8.096 9.834,8.027C9.863,7.959 9.878,7.886 9.878,7.808Z" fill="#FFFFFF"/>
</svg>
