<svg width="40" height="40" viewBox="0 0 40 40" fill="none" xmlns="http://www.w3.org/2000/svg" xmlns:xlink="http://www.w3.org/1999/xlink">
<path d="M10.124,39.228C8.717,39.228 7.389,38.968 6.139,38.447C4.889,37.9 3.795,37.158 2.858,36.22C1.92,35.283 1.178,34.202 0.631,32.978C0.111,31.728 -0.15,30.387 -0.15,28.955L-0.15,10.791C-0.15,9.384 0.111,8.056 0.631,6.806C1.178,5.556 1.92,4.463 2.858,3.525C3.795,2.588 4.889,1.858 6.139,1.337C7.389,0.791 8.717,0.517 10.124,0.517L28.288,0.517C29.694,0.517 31.022,0.791 32.272,1.337C33.522,1.858 34.616,2.588 35.553,3.525C36.491,4.463 37.22,5.556 37.741,6.806C38.288,8.056 38.561,9.384 38.561,10.791L38.561,28.955C38.561,30.361 38.288,31.689 37.741,32.939C37.22,34.189 36.491,35.283 35.553,36.22C34.616,37.158 33.522,37.9 32.272,38.447C31.022,38.968 29.694,39.228 28.288,39.228L10.124,39.228ZM2.506,28.955C2.506,29.996 2.702,30.986 3.092,31.923C3.483,32.861 4.023,33.675 4.713,34.365C5.403,35.055 6.217,35.595 7.155,35.986C8.092,36.377 9.082,36.572 10.124,36.572L28.288,36.572C29.329,36.572 30.319,36.377 31.256,35.986C32.168,35.595 32.968,35.055 33.659,34.365C34.349,33.675 34.902,32.861 35.319,31.923C35.709,30.986 35.905,29.996 35.905,28.955L35.905,10.791C35.905,9.749 35.709,8.759 35.319,7.822C34.902,6.91 34.349,6.11 33.659,5.42C32.968,4.729 32.168,4.176 31.256,3.759C30.319,3.369 29.329,3.173 28.288,3.173L10.124,3.173C9.082,3.173 8.092,3.369 7.155,3.759C6.217,4.176 5.403,4.729 4.713,5.42C4.023,6.11 3.483,6.91 3.092,7.822C2.702,8.759 2.506,9.749 2.506,10.791L2.506,28.955ZM11.764,25.908C11.4,25.908 11.087,25.778 10.827,25.517C10.566,25.257 10.436,24.944 10.436,24.58C10.436,23.382 10.67,22.249 11.139,21.181C11.582,20.114 12.2,19.183 12.995,18.388C13.789,17.594 14.72,16.976 15.788,16.533C16.855,16.064 17.988,15.83 19.186,15.83L19.225,15.83C20.449,15.83 21.582,16.064 22.623,16.533C23.691,16.976 24.622,17.594 25.416,18.388C26.211,19.183 26.842,20.114 27.311,21.181C27.754,22.249 27.975,23.382 27.975,24.58C27.975,24.944 27.845,25.257 27.584,25.517C27.324,25.778 27.011,25.908 26.647,25.908C26.282,25.908 25.97,25.778 25.709,25.517C25.449,25.257 25.319,24.944 25.319,24.58C25.319,22.913 24.72,21.481 23.522,20.283C22.324,19.085 20.892,18.486 19.225,18.486C17.532,18.486 16.094,19.085 14.909,20.283C13.724,21.481 13.131,22.913 13.131,24.58C13.131,24.944 12.995,25.257 12.721,25.517C12.448,25.778 12.129,25.908 11.764,25.908Z" fill="#0D9B7A"/>
</svg>
