<svg width="24" height="14" viewBox="0 0 24 14" fill="none" xmlns="http://www.w3.org/2000/svg" xmlns:xlink="http://www.w3.org/1999/xlink">
<path d="M22.273,10.455C22.273,10.377 22.253,10.292 22.214,10.201C22.175,10.11 22.13,10.025 22.078,9.947L11.648,-0.444C11.596,-0.522 11.524,-0.58 11.433,-0.62C11.342,-0.659 11.244,-0.678 11.14,-0.678C11.062,-0.678 10.977,-0.659 10.886,-0.62C10.795,-0.58 10.71,-0.522 10.632,-0.444L0.242,9.947C0.164,10.025 0.105,10.11 0.066,10.201C0.027,10.292 0.007,10.377 0.007,10.455C0.007,10.559 0.027,10.657 0.066,10.748C0.105,10.839 0.164,10.91 0.242,10.962L1.335,12.095C1.414,12.173 1.498,12.232 1.589,12.271C1.68,12.31 1.765,12.33 1.843,12.33C1.947,12.33 2.045,12.31 2.136,12.271C2.227,12.232 2.312,12.173 2.39,12.095L11.14,3.306L19.929,12.095C19.981,12.173 20.053,12.232 20.144,12.271C20.235,12.31 20.333,12.33 20.437,12.33C20.515,12.33 20.6,12.31 20.691,12.271C20.782,12.232 20.867,12.173 20.945,12.095L22.078,10.962C22.13,10.91 22.175,10.839 22.214,10.748C22.253,10.657 22.273,10.559 22.273,10.455Z" fill="#0D9B7A"/>
</svg>
