<svg width="42" height="34" viewBox="0 0 42 34" fill="none" xmlns="http://www.w3.org/2000/svg" xmlns:xlink="http://www.w3.org/1999/xlink">
<path d="M37.748,23.431C37.748,26.582 36.889,28.64 35.17,29.603C33.452,30.567 31.707,31.049 29.936,31.049C29.103,31.049 28.256,30.853 27.397,30.463C26.538,30.072 25.737,29.61 24.995,29.076C24.252,28.542 23.595,27.989 23.022,27.416C22.423,26.843 21.98,26.387 21.694,26.049C21.433,25.736 21.069,25.58 20.6,25.58C20.131,25.58 19.767,25.736 19.506,26.049C19.22,26.387 18.777,26.843 18.178,27.416C17.605,27.989 16.948,28.542 16.206,29.076C15.463,29.61 14.663,30.072 13.803,30.463C12.944,30.853 12.097,31.049 11.264,31.049C9.493,31.049 7.749,30.567 6.03,29.603C4.311,28.64 3.452,26.582 3.452,23.431C3.452,22.416 3.673,21.439 4.116,20.502C4.532,19.538 5.001,18.692 5.522,17.962C6.043,17.233 6.525,16.647 6.967,16.205C7.41,15.762 7.631,15.528 7.631,15.502L20.6,3.002L33.53,15.502C33.556,15.528 33.79,15.762 34.233,16.205C34.676,16.647 35.157,17.233 35.678,17.962C36.199,18.692 36.668,19.538 37.084,20.502C37.527,21.439 37.748,22.416 37.748,23.431ZM40.6,23.431C40.6,22.103 40.34,20.84 39.819,19.642C39.324,18.444 38.758,17.39 38.12,16.478C37.482,15.567 36.902,14.837 36.381,14.291C35.834,13.744 35.535,13.444 35.483,13.392L21.577,-0.006C21.446,-0.136 21.297,-0.234 21.127,-0.299C20.958,-0.364 20.782,-0.397 20.6,-0.397C20.418,-0.397 20.242,-0.364 20.073,-0.299C19.903,-0.234 19.754,-0.136 19.624,-0.006L5.678,13.431C5.652,13.483 5.366,13.783 4.819,14.33C4.272,14.877 3.686,15.599 3.061,16.498C2.436,17.396 1.876,18.444 1.381,19.642C0.861,20.84 0.6,22.103 0.6,23.431C0.6,25.072 0.847,26.543 1.342,27.845C1.811,29.121 2.508,30.209 3.432,31.107C4.357,32.006 5.47,32.689 6.772,33.158C8.1,33.653 9.597,33.9 11.264,33.9C13.217,33.9 15.04,33.314 16.733,32.142C18.426,30.97 19.715,29.942 20.6,29.056C21.485,29.942 22.774,30.97 24.467,32.142C26.16,33.314 27.983,33.9 29.936,33.9C31.603,33.9 33.1,33.653 34.428,33.158C35.73,32.689 36.843,32.006 37.768,31.107C38.692,30.209 39.389,29.121 39.858,27.845C40.353,26.543 40.6,25.072 40.6,23.431Z" fill="#0D9B7A"/>
</svg>
