<svg width="44" height="36" viewBox="0 0 44 36" fill="none" xmlns="http://www.w3.org/2000/svg" xmlns:xlink="http://www.w3.org/1999/xlink">
<path d="M10.796,34.009C10.327,34.009 9.891,33.931 9.487,33.775C9.083,33.619 8.712,33.384 8.374,33.072C8.061,32.733 7.82,32.362 7.651,31.958C7.482,31.555 7.397,31.106 7.397,30.611L7.397,29.439C7.397,29.205 7.482,29.003 7.651,28.833C7.82,28.664 8.009,28.58 8.217,28.58L9.116,28.58C9.35,28.58 9.552,28.664 9.721,28.833C9.891,29.003 9.975,29.205 9.975,29.439L23.803,18.775C23.881,18.723 23.96,18.684 24.038,18.658C24.116,18.632 24.194,18.606 24.272,18.58C24.35,18.528 24.441,18.495 24.546,18.482C24.65,18.469 24.741,18.462 24.819,18.462C24.923,18.462 25.021,18.469 25.112,18.482C25.203,18.495 25.288,18.528 25.366,18.58C25.444,18.606 25.522,18.632 25.6,18.658C25.678,18.684 25.756,18.723 25.835,18.775L25.874,18.775L39.702,29.439L39.702,10.181C39.702,10.051 39.682,9.934 39.643,9.83C39.604,9.726 39.546,9.634 39.467,9.556C39.389,9.478 39.298,9.42 39.194,9.38C39.09,9.341 38.973,9.322 38.842,9.322L31.186,9.322C30.952,9.322 30.756,9.244 30.6,9.087C30.444,8.931 30.366,8.736 30.366,8.502L30.366,7.603C30.366,7.369 30.444,7.173 30.6,7.017C30.756,6.861 30.952,6.783 31.186,6.783L38.842,6.783C39.337,6.783 39.786,6.861 40.19,7.017C40.594,7.173 40.952,7.421 41.264,7.759C41.603,8.072 41.85,8.43 42.006,8.834C42.163,9.237 42.241,9.686 42.241,10.181L42.241,30.611C42.241,31.106 42.163,31.555 42.006,31.958C41.85,32.362 41.603,32.733 41.264,33.072C40.952,33.384 40.594,33.619 40.19,33.775C39.786,33.931 39.337,34.009 38.842,34.009L10.796,34.009ZM24.819,21.041L11.186,31.47L38.452,31.47L24.819,21.041ZM25.913,-0.288C24.376,-0.288 22.846,-0.105 21.323,0.259C19.799,0.624 18.283,1.171 16.772,1.9C15.262,2.629 13.829,3.476 12.475,4.439C11.121,5.403 9.858,6.47 8.686,7.642C7.488,8.84 6.408,10.116 5.444,11.47C4.48,12.824 3.634,14.257 2.905,15.767C2.176,17.278 1.629,18.795 1.264,20.318C0.9,21.841 0.717,23.371 0.717,24.908C0.717,25.142 0.757,25.363 0.835,25.572C0.913,25.78 1.03,25.962 1.186,26.119C1.342,26.275 1.518,26.392 1.714,26.47C1.909,26.548 2.124,26.587 2.358,26.587L7.553,26.587C7.762,26.587 7.951,26.555 8.12,26.49C8.289,26.425 8.452,26.327 8.608,26.197C8.764,26.067 8.888,25.923 8.979,25.767C9.07,25.611 9.142,25.429 9.194,25.22L10.092,20.533C10.118,20.35 10.131,20.168 10.131,19.986C10.131,19.804 10.105,19.634 10.053,19.478C10.027,19.322 9.975,19.172 9.897,19.029C9.819,18.886 9.715,18.762 9.585,18.658L5.913,15.103C6.538,14.035 7.228,13.02 7.983,12.056C8.738,11.093 9.546,10.181 10.405,9.322C11.264,8.462 12.189,7.655 13.178,6.9C14.168,6.145 15.21,5.455 16.303,4.83L19.819,8.423C19.949,8.554 20.092,8.664 20.249,8.755C20.405,8.847 20.574,8.918 20.756,8.97C20.913,9.022 21.082,9.055 21.264,9.068C21.447,9.081 21.629,9.074 21.811,9.048L26.225,8.15C26.434,8.098 26.616,8.026 26.772,7.935C26.928,7.844 27.072,7.72 27.202,7.564C27.332,7.434 27.43,7.278 27.495,7.095C27.56,6.913 27.592,6.718 27.592,6.509L27.592,1.353C27.592,1.119 27.553,0.904 27.475,0.709C27.397,0.513 27.28,0.337 27.124,0.181C26.967,0.025 26.785,-0.092 26.577,-0.17C26.368,-0.248 26.147,-0.288 25.913,-0.288ZM4.78,17.33L7.631,20.064C7.631,20.064 7.645,20.077 7.671,20.103C7.697,20.129 7.71,20.168 7.71,20.22C7.71,20.246 7.71,20.279 7.71,20.318C7.71,20.357 7.71,20.389 7.71,20.416L7.006,23.97C7.006,23.996 6.993,24.029 6.967,24.068C6.941,24.107 6.915,24.126 6.889,24.126C6.889,24.153 6.87,24.172 6.831,24.185C6.792,24.198 6.746,24.205 6.694,24.205L3.335,24.205C3.283,24.205 3.25,24.198 3.237,24.185C3.224,24.172 3.204,24.153 3.178,24.126C3.152,24.126 3.133,24.113 3.12,24.087C3.107,24.061 3.1,24.022 3.1,23.97C3.152,23.449 3.224,22.909 3.315,22.349C3.406,21.789 3.517,21.236 3.647,20.689C3.777,20.116 3.94,19.556 4.135,19.009C4.331,18.462 4.546,17.903 4.78,17.33ZM18.53,3.697C19.051,3.462 19.585,3.254 20.131,3.072C20.678,2.89 21.238,2.733 21.811,2.603C22.384,2.473 22.937,2.369 23.471,2.291C24.005,2.212 24.519,2.16 25.014,2.134C25.04,2.134 25.066,2.141 25.092,2.154C25.118,2.167 25.131,2.173 25.131,2.173C25.158,2.199 25.177,2.226 25.19,2.252C25.203,2.278 25.21,2.304 25.21,2.33L25.21,5.689C25.21,5.715 25.203,5.748 25.19,5.787C25.177,5.826 25.158,5.858 25.131,5.884C25.131,5.91 25.112,5.93 25.073,5.943C25.034,5.956 25.001,5.976 24.975,6.002L21.655,6.666C21.603,6.666 21.564,6.666 21.538,6.666C21.512,6.666 21.499,6.666 21.499,6.666C21.473,6.666 21.447,6.659 21.421,6.646C21.394,6.633 21.368,6.614 21.342,6.587L18.53,3.697Z" fill="#0D9B7A"/>
</svg>
