<svg width="10" height="18" viewBox="0 0 10 18" fill="none" xmlns="http://www.w3.org/2000/svg" xmlns:xlink="http://www.w3.org/1999/xlink">
<path d="M9.863,14.78C9.863,14.722 9.849,14.653 9.819,14.575C9.79,14.497 9.756,14.438 9.717,14.399L3.125,7.808L9.717,1.245C9.756,1.187 9.79,1.123 9.819,1.055C9.849,0.986 9.863,0.923 9.863,0.864C9.863,0.786 9.849,0.713 9.819,0.645C9.79,0.576 9.756,0.513 9.717,0.454L8.867,-0.366C8.809,-0.425 8.745,-0.469 8.677,-0.498C8.608,-0.527 8.545,-0.542 8.486,-0.542C8.408,-0.542 8.335,-0.527 8.267,-0.498C8.198,-0.469 8.145,-0.425 8.105,-0.366L0.283,7.427C0.244,7.485 0.21,7.549 0.181,7.617C0.151,7.686 0.137,7.749 0.137,7.808C0.137,7.886 0.151,7.959 0.181,8.027C0.21,8.096 0.244,8.149 0.283,8.188L8.105,16.011C8.145,16.05 8.198,16.084 8.267,16.113C8.335,16.143 8.408,16.157 8.486,16.157C8.545,16.157 8.608,16.143 8.677,16.113C8.745,16.084 8.809,16.05 8.867,16.011L9.717,15.161C9.756,15.122 9.79,15.068 9.819,15C9.849,14.932 9.863,14.858 9.863,14.78Z" fill="#FFFFFF"/>
</svg>
